<?xml version="1.0" standalone="yes"?>

<svg version="1.1" viewBox="0.0 0.0 560.0 112.06299212598425" fill="none" stroke="none" stroke-linecap="square" stroke-miterlimit="10" xmlns="http://www.w3.org/2000/svg" xmlns:xlink="http://www.w3.org/1999/xlink"><clipPath id="p.0"><path d="m0 0l560.0 0l0 112.062996l-560.0 0l0 -112.062996z" clip-rule="nonzero"></path></clipPath><g clip-path="url(#p.0)"><path fill="#999" fill-opacity="0.0" d="m0 0l560.0 0l0 112.062996l-560.0 0z" fill-rule="evenodd"></path><path fill="#999" fill-opacity="0.0" d="m8.0 104.0024l0 -96.0024l56.0 0" fill-rule="evenodd"></path><path stroke="#999" stroke-width="16.0" stroke-linejoin="round" stroke-linecap="butt" d="m8.0 104.0024l0 -96.0024l56.0 0" fill-rule="evenodd"></path><path fill="#999" fill-opacity="0.0" d="m80.0 0l0 112.0" fill-rule="evenodd"></path><path stroke="#999" stroke-width="16.0" stroke-linejoin="round" stroke-linecap="butt" d="m80.0 0l0 112.0" fill-rule="evenodd"></path><path fill="#999" fill-opacity="0.0" d="m104.0 103.9968l0 -55.996803l47.997604 0l0 55.996803z" fill-rule="evenodd"></path><path stroke="#999" stroke-width="16.0" stroke-linejoin="round" stroke-linecap="butt" d="m104.0 103.9968l0 -55.996803l47.997604 0l0 55.996803z" fill-rule="evenodd"></path><path fill="#999" fill-opacity="0.0" d="m176.0 40.0l0 64.0l24.0 -24.0l24.0 24.0l0 -64.0" fill-rule="evenodd"></path><path stroke="#999" stroke-width="16.0" stroke-linejoin="round" stroke-linecap="butt" d="m176.0 40.0l0 64.0l24.0 -24.0l24.0 24.0l0 -64.0" fill-rule="evenodd"></path><path fill="#999" fill-opacity="0.0" d="m8.0 112.0024l0 -64.0024l40.0 0" fill-rule="evenodd"></path><path stroke="#999" stroke-width="16.0" stroke-linejoin="round" stroke-linecap="butt" d="m8.0 112.0024l0 -64.0024l40.0 0" fill-rule="evenodd"></path><path fill="#999" fill-opacity="0.0" d="m368.0 104.0l0 -56.0l-40.0 0" fill-rule="evenodd"></path><path stroke="#999" stroke-width="16.0" stroke-linejoin="round" d="m368.0 104.0l0 -56.0l-40.0 0" fill-rule="evenodd"></path><path fill="#999" fill-opacity="0.0" d="m320.0 8.0l0 96.0" fill-rule="evenodd"></path><path stroke="#999" stroke-width="16.0" stroke-linejoin="round" d="m320.0 8.0l0 96.0" fill-rule="evenodd"></path><path fill="#999" fill-opacity="0.0" d="m296.0 8.0l-48.0 0l0 40.0l48.0 0l0 56.0l-48.0 0" fill-rule="evenodd"></path><path stroke="#999" stroke-width="16.0" stroke-linejoin="round" d="m296.0 8.0l-48.0 0l0 40.0l48.0 0l0 56.0l-48.0 0" fill-rule="evenodd"></path><path fill="#999" fill-opacity="0.0" d="m416.0 80.0l24.0 0l0 -32.0l-48.0 0l0 56.0l56.0 0" fill-rule="evenodd"></path><path stroke="#999" stroke-width="16.0" stroke-linejoin="round" stroke-linecap="butt" d="m416.0 80.0l24.0 0l0 -32.0l-48.0 0l0 56.0l56.0 0" fill-rule="evenodd"></path><path fill="#999" fill-opacity="0.0" d="m488.0 80.0l24.0 0l0 -32.0l-48.0 0l0 56.0l56.0 0" fill-rule="evenodd"></path><path stroke="#999" stroke-width="16.0" stroke-linejoin="round" stroke-linecap="butt" d="m488.0 80.0l24.0 0l0 -32.0l-48.0 0l0 56.0l56.0 0" fill-rule="evenodd"></path><path fill="#999" fill-opacity="0.0" d="m544.0 8.0l0 96.0l8.0 0" fill-rule="evenodd"></path><path stroke="#999" stroke-width="16.0" stroke-linejoin="round" d="m544.0 8.0l0 96.0l8.0 0" fill-rule="evenodd"></path><path fill="#999" fill-opacity="0.0" d="m528.0 48.0l32.0 0" fill-rule="evenodd"></path><path stroke="#999" stroke-width="16.0" stroke-linejoin="round" stroke-linecap="butt" d="m528.0 48.0l32.0 0" fill-rule="evenodd"></path></g></svg>

