<?xml version="1.0" standalone="yes"?>

<svg version="1.1" viewBox="0.0 0.0 320.0 232.0" fill="none" stroke="none" stroke-linecap="square" stroke-miterlimit="10" xmlns="http://www.w3.org/2000/svg" xmlns:xlink="http://www.w3.org/1999/xlink"><clipPath id="p.0"><path d="m0 0l320.0 0l0 232.0l-320.0 0l0 -232.0z" clip-rule="nonzero"></path></clipPath><g clip-path="url(#p.0)"><path fill="#fff" fill-opacity="0.0" d="m0 0l320.0 0l0 232.0l-320.0 0z" fill-rule="evenodd"></path><path fill="#fff" fill-opacity="0.0" d="m8.0 104.0024l0 -96.0024l56.0 0" fill-rule="evenodd"></path><path stroke="#fff" stroke-width="16.0" stroke-linejoin="round" stroke-linecap="butt" d="m8.0 104.0024l0 -96.0024l56.0 0" fill-rule="evenodd"></path><path fill="#fff" fill-opacity="0.0" d="m80.0 0l0 112.0" fill-rule="evenodd"></path><path stroke="#fff" stroke-width="16.0" stroke-linejoin="round" stroke-linecap="butt" d="m80.0 0l0 112.0" fill-rule="evenodd"></path><path fill="#fff" fill-opacity="0.0" d="m104.0 103.9968l0 -55.996803l47.997604 0l0 55.996803z" fill-rule="evenodd"></path><path stroke="#fff" stroke-width="16.0" stroke-linejoin="round" stroke-linecap="butt" d="m104.0 103.9968l0 -55.996803l47.997604 0l0 55.996803z" fill-rule="evenodd"></path><path fill="#fff" fill-opacity="0.0" d="m176.0 40.0l0 64.0l24.0 -24.0l24.0 24.0l0 -64.0" fill-rule="evenodd"></path><path stroke="#fff" stroke-width="16.0" stroke-linejoin="round" stroke-linecap="butt" d="m176.0 40.0l0 64.0l24.0 -24.0l24.0 24.0l0 -64.0" fill-rule="evenodd"></path><path fill="#fff" fill-opacity="0.0" d="m8.0 112.0024l0 -64.0024l40.0 0" fill-rule="evenodd"></path><path stroke="#fff" stroke-width="16.0" stroke-linejoin="round" stroke-linecap="butt" d="m8.0 112.0024l0 -64.0024l40.0 0" fill-rule="evenodd"></path><path fill="#fff" fill-opacity="0.0" d="m128.0 224.0l0 -56.0l-40.0 0" fill-rule="evenodd"></path><path stroke="#fff" stroke-width="16.0" stroke-linejoin="round" d="m128.0 224.0l0 -56.0l-40.0 0" fill-rule="evenodd"></path><path fill="#fff" fill-opacity="0.0" d="m80.0 128.0l0 96.0" fill-rule="evenodd"></path><path stroke="#fff" stroke-width="16.0" stroke-linejoin="round" d="m80.0 128.0l0 96.0" fill-rule="evenodd"></path><path fill="#fff" fill-opacity="0.0" d="m56.0 128.0l-48.0 0l0 40.0l48.0 0l0 56.0l-48.0 0" fill-rule="evenodd"></path><path stroke="#fff" stroke-width="16.0" stroke-linejoin="round" d="m56.0 128.0l-48.0 0l0 40.0l48.0 0l0 56.0l-48.0 0" fill-rule="evenodd"></path><path fill="#fff" fill-opacity="0.0" d="m176.0 200.0l24.0 0l0 -32.0l-48.0 0l0 56.0l56.0 0" fill-rule="evenodd"></path><path stroke="#fff" stroke-width="16.0" stroke-linejoin="round" stroke-linecap="butt" d="m176.0 200.0l24.0 0l0 -32.0l-48.0 0l0 56.0l56.0 0" fill-rule="evenodd"></path><path fill="#fff" fill-opacity="0.0" d="m248.0 200.0l24.0 0l0 -32.0l-48.0 0l0 56.0l56.0 0" fill-rule="evenodd"></path><path stroke="#fff" stroke-width="16.0" stroke-linejoin="round" stroke-linecap="butt" d="m248.0 200.0l24.0 0l0 -32.0l-48.0 0l0 56.0l56.0 0" fill-rule="evenodd"></path><path fill="#fff" fill-opacity="0.0" d="m304.0 128.0l0 96.0l8.0 0" fill-rule="evenodd"></path><path stroke="#fff" stroke-width="16.0" stroke-linejoin="round" d="m304.0 128.0l0 96.0l8.0 0" fill-rule="evenodd"></path><path fill="#fff" fill-opacity="0.0" d="m288.0 168.0l32.0 0" fill-rule="evenodd"></path><path stroke="#fff" stroke-width="16.0" stroke-linejoin="round" stroke-linecap="butt" d="m288.0 168.0l32.0 0" fill-rule="evenodd"></path></g></svg>

